<svg version="1.1" id="Layer_1" xmlns:x="ns_extend;" xmlns:i="ns_ai;" xmlns:graph="ns_graphs;" xmlns="http://www.w3.org/2000/svg" xmlns:xlink="http://www.w3.org/1999/xlink" x="0px" y="0px" viewBox="0 0 87.3 87" style="enable-background:new 0 0 87.3 87;" xml:space="preserve">
 <style type="text/css">
  .st0{fill:#FFDB00;}
 </style>
 <metadata>
  <sfw xmlns="ns_sfw;">
   <slices>
   </slices>
   <sliceSourceBounds bottomLeftOrigin="true" height="87" width="87.3" x="-184.5" y="32.6">
   </sliceSourceBounds>
  </sfw>
 </metadata>
 <g>
  <path class="st0" d="M28.3,68.7c-5.2-2.3-17.3-9.2-17.4-22.4c7.2,5.6,15.9,9,25,9.9c-4.4-3.7-14.1-13.6-10.6-26.4
		c5.4,7.4,12.8,13.2,21.3,16.6c-3.2-4.7-9.8-17-2.9-28.4c3.2,8.6,8.7,16.1,15.9,21.8c-1.7-5.5-4.8-19.1,5-28.1
		c0.7,9.2,3.9,17.9,9.3,25.4C73.6,32.7,74,24,79,17.3C64.3-2,36.7-5.7,17.3,9C-0.9,23-5.4,48.6,7,67.9
		C13.9,69.8,21.2,70.1,28.3,68.7z">
  </path>
  <path class="st0" d="M29.2,79c-0.5,1.7-0.9,3.5-1.2,5.2c22.8,8.5,48.1-3.1,56.6-25.9c1.6-4.4,2.6-9,2.7-13.6
		C61.9,39,36.5,54,29.2,79z">
  </path>
 </g>
</svg>